<mxfile host="65bd71144e">
    <diagram id="AQUJ3VonGc8Z7udLagyf" name="Page-1">
        <mxGraphModel dx="1299" dy="971" grid="1" gridSize="10" guides="1" tooltips="1" connect="1" arrows="1" fold="1" page="1" pageScale="1" pageWidth="850" pageHeight="1100" math="0" shadow="0">
            <root>
                <mxCell id="0"/>
                <mxCell id="1" parent="0"/>
                <mxCell id="25" value="" style="endArrow=none;dashed=1;html=1;fontFamily=Consolas;fontSize=36;strokeWidth=4;" edge="1" parent="1">
                    <mxGeometry width="50" height="50" relative="1" as="geometry">
                        <mxPoint x="789.41" y="690" as="sourcePoint"/>
                        <mxPoint x="789.41" y="30" as="targetPoint"/>
                    </mxGeometry>
                </mxCell>
                <mxCell id="9" style="edgeStyle=none;html=1;exitX=1;exitY=0.75;exitDx=0;exitDy=0;fontFamily=Consolas;fontSize=36;" edge="1" parent="1" source="2" target="8">
                    <mxGeometry relative="1" as="geometry"/>
                </mxCell>
                <mxCell id="2" value="scanID" style="rounded=1;whiteSpace=wrap;html=1;fontFamily=Consolas;fontSize=24;fillColor=#f8cecc;strokeColor=#b85450;" vertex="1" parent="1">
                    <mxGeometry x="60" y="180" width="120" height="60" as="geometry"/>
                </mxCell>
                <mxCell id="10" style="edgeStyle=none;html=1;exitX=1;exitY=0.5;exitDx=0;exitDy=0;fontFamily=Consolas;fontSize=36;" edge="1" parent="1" source="3" target="8">
                    <mxGeometry relative="1" as="geometry"/>
                </mxCell>
                <mxCell id="3" value="Network Storage" style="shape=datastore;whiteSpace=wrap;html=1;strokeWidth=2;fontFamily=Consolas;fontSize=32;gradientDirection=radial;fillColor=#C056F5;" vertex="1" parent="1">
                    <mxGeometry x="40" y="280" width="160" height="180" as="geometry"/>
                </mxCell>
                <mxCell id="11" style="edgeStyle=none;html=1;exitX=1;exitY=0.5;exitDx=0;exitDy=0;fontFamily=Consolas;fontSize=36;" edge="1" parent="1" source="4" target="8">
                    <mxGeometry relative="1" as="geometry"/>
                </mxCell>
                <mxCell id="4" value="Register" style="rounded=1;whiteSpace=wrap;html=1;fontFamily=Consolas;fontSize=24;fillColor=#f5f5f5;strokeColor=#666666;fontColor=#333333;" vertex="1" parent="1">
                    <mxGeometry x="40" y="530" width="170" height="70" as="geometry"/>
                </mxCell>
                <mxCell id="14" style="edgeStyle=none;html=1;exitX=0.5;exitY=0.5;exitDx=0;exitDy=0;exitPerimeter=0;fontFamily=Consolas;fontSize=36;" edge="1" parent="1" source="5" target="6">
                    <mxGeometry relative="1" as="geometry"/>
                </mxCell>
                <mxCell id="5" value="User" style="shape=umlActor;verticalLabelPosition=bottom;verticalAlign=top;html=1;outlineConnect=0;fontFamily=Consolas;fontSize=24;" vertex="1" parent="1">
                    <mxGeometry x="100" y="30" width="30" height="60" as="geometry"/>
                </mxCell>
                <mxCell id="15" style="edgeStyle=none;html=1;fontFamily=Consolas;fontSize=36;" edge="1" parent="1" source="6" target="16">
                    <mxGeometry relative="1" as="geometry">
                        <mxPoint x="610" y="350" as="targetPoint"/>
                    </mxGeometry>
                </mxCell>
                <mxCell id="6" value="Password" style="rounded=1;whiteSpace=wrap;html=1;fontFamily=Consolas;fontSize=24;fillColor=#d5e8d4;strokeColor=#82b366;" vertex="1" parent="1">
                    <mxGeometry x="220" y="50" width="120" height="60" as="geometry"/>
                </mxCell>
                <mxCell id="8" value="Export" style="rounded=1;whiteSpace=wrap;html=1;fontFamily=Consolas;fillColor=#030303;fontColor=#ffffff;strokeColor=#005700;gradientColor=none;gradientDirection=radial;fontSize=36;" vertex="1" parent="1">
                    <mxGeometry x="300" y="325" width="230" height="90" as="geometry"/>
                </mxCell>
                <mxCell id="12" style="edgeStyle=none;html=1;exitX=1;exitY=0.5;exitDx=0;exitDy=0;fontFamily=Consolas;fontSize=36;" edge="1" parent="1" source="8" target="13">
                    <mxGeometry relative="1" as="geometry">
                        <mxPoint x="190" y="235" as="sourcePoint"/>
                        <mxPoint x="700" y="370" as="targetPoint"/>
                    </mxGeometry>
                </mxCell>
                <mxCell id="13" value="File" style="whiteSpace=wrap;html=1;shape=mxgraph.basic.document;fontFamily=Consolas;fontSize=36;" vertex="1" parent="1">
                    <mxGeometry x="740" y="320" width="100" height="100" as="geometry"/>
                </mxCell>
                <mxCell id="16" value="" style="sketch=0;pointerEvents=1;shadow=0;dashed=0;html=1;strokeColor=none;labelPosition=center;verticalLabelPosition=bottom;verticalAlign=top;align=center;fillColor=#505050;shape=mxgraph.mscae.intune.protection;fontFamily=Consolas;fontSize=36;" vertex="1" parent="1">
                    <mxGeometry x="570" y="320" width="88" height="90" as="geometry"/>
                </mxCell>
                <mxCell id="17" value="" style="sketch=0;pointerEvents=1;shadow=0;dashed=0;html=1;strokeColor=none;labelPosition=center;verticalLabelPosition=bottom;verticalAlign=top;align=center;fillColor=#505050;shape=mxgraph.mscae.intune.end_protection;fontFamily=Consolas;fontSize=36;" vertex="1" parent="1">
                    <mxGeometry x="940" y="325" width="90" height="90" as="geometry"/>
                </mxCell>
                <mxCell id="18" style="edgeStyle=none;html=1;fontFamily=Consolas;fontSize=36;" edge="1" parent="1" source="13" target="17">
                    <mxGeometry relative="1" as="geometry">
                        <mxPoint x="540" y="380" as="sourcePoint"/>
                        <mxPoint x="750" y="380" as="targetPoint"/>
                    </mxGeometry>
                </mxCell>
                <mxCell id="19" value="Import" style="rounded=1;whiteSpace=wrap;html=1;fontFamily=Consolas;fillColor=#030303;fontColor=#ffffff;strokeColor=#005700;gradientColor=none;gradientDirection=radial;fontSize=36;" vertex="1" parent="1">
                    <mxGeometry x="1100" y="320" width="230" height="90" as="geometry"/>
                </mxCell>
                <mxCell id="20" style="edgeStyle=none;html=1;fontFamily=Consolas;fontSize=36;" edge="1" parent="1" source="17" target="19">
                    <mxGeometry relative="1" as="geometry">
                        <mxPoint x="850" y="380" as="sourcePoint"/>
                        <mxPoint x="950" y="380" as="targetPoint"/>
                    </mxGeometry>
                </mxCell>
                <mxCell id="21" style="edgeStyle=none;html=1;exitX=0.5;exitY=0.5;exitDx=0;exitDy=0;exitPerimeter=0;fontFamily=Consolas;fontSize=36;" edge="1" parent="1" source="22" target="23">
                    <mxGeometry relative="1" as="geometry"/>
                </mxCell>
                <mxCell id="22" value="User" style="shape=umlActor;verticalLabelPosition=bottom;verticalAlign=top;html=1;outlineConnect=0;fontFamily=Consolas;fontSize=24;" vertex="1" parent="1">
                    <mxGeometry x="890" y="20" width="30" height="60" as="geometry"/>
                </mxCell>
                <mxCell id="24" style="edgeStyle=none;html=1;exitX=0.5;exitY=1;exitDx=0;exitDy=0;fontFamily=Consolas;fontSize=36;" edge="1" parent="1" source="23" target="17">
                    <mxGeometry relative="1" as="geometry"/>
                </mxCell>
                <mxCell id="23" value="Password" style="rounded=1;whiteSpace=wrap;html=1;fontFamily=Consolas;fontSize=24;fillColor=#d5e8d4;strokeColor=#82b366;" vertex="1" parent="1">
                    <mxGeometry x="1010" y="40" width="120" height="60" as="geometry"/>
                </mxCell>
                <mxCell id="26" style="edgeStyle=none;html=1;fontFamily=Consolas;fontSize=36;" edge="1" parent="1" source="19" target="28">
                    <mxGeometry relative="1" as="geometry">
                        <mxPoint x="1080" y="110" as="sourcePoint"/>
                        <mxPoint x="1480" y="365" as="targetPoint"/>
                    </mxGeometry>
                </mxCell>
                <mxCell id="28" value="" style="sketch=0;aspect=fixed;pointerEvents=1;shadow=0;dashed=0;html=1;strokeColor=#005700;labelPosition=center;verticalLabelPosition=bottom;verticalAlign=top;align=center;fillColor=#008a00;shape=mxgraph.azure.computer;labelBackgroundColor=none;fontFamily=Consolas;fontSize=50;fontColor=#ffffff;" vertex="1" parent="1">
                    <mxGeometry x="1430" y="243.5" width="270" height="243" as="geometry"/>
                </mxCell>
                <mxCell id="29" value="&lt;font face=&quot;Consolas&quot; color=&quot;#00ff00&quot; style=&quot;font-size: 97px;&quot;&gt;GUI&lt;/font&gt;" style="text;html=1;strokeColor=none;fillColor=none;align=center;verticalAlign=middle;whiteSpace=wrap;rounded=0;fontSize=97;" vertex="1" parent="1">
                    <mxGeometry x="1450" y="267" width="230" height="150" as="geometry"/>
                </mxCell>
            </root>
        </mxGraphModel>
    </diagram>
</mxfile>
